<?xml version="1.0" standalone="no"?>
<!DOCTYPE svg PUBLIC "-//W3C//DTD SVG 20010904//EN"
 "http://www.w3.org/TR/2001/REC-SVG-20010904/DTD/svg10.dtd">
<svg version="1.0" xmlns="http://www.w3.org/2000/svg"
 width="512.000000pt" height="512.000000pt" viewBox="0 0 512.000000 512.000000"
 preserveAspectRatio="xMidYMid meet">

<g transform="translate(0.000000,512.000000) scale(0.100000,-0.100000)"
fill="#000000" stroke="none">
<path d="M2330 5110 c-1115 -116 -2001 -894 -2226 -1955 -22 -104 -27 -158
-28 -270 -1 -135 0 -142 28 -200 55 -112 165 -199 284 -224 38 -8 642 -11
2175 -11 2293 0 2174 -3 2279 51 63 32 135 111 171 187 31 65 32 71 32 197 0
81 -7 166 -18 225 -125 670 -555 1279 -1161 1644 -279 169 -637 296 -956 341
-136 19 -459 27 -580 15z m539 -316 c237 -35 525 -127 721 -231 492 -261 840
-645 1046 -1153 l42 -105 -37 -3 c-50 -4 -123 25 -251 98 -209 119 -334 149
-485 115 -57 -12 -132 -44 -284 -121 -160 -81 -215 -104 -247 -104 -31 0 -90
24 -262 109 -246 120 -300 137 -420 128 -93 -6 -158 -31 -399 -154 -225 -115
-204 -116 -472 21 -360 183 -414 183 -781 -6 l-195 -100 -63 5 c-52 4 -85 16
-178 62 -63 32 -114 60 -114 64 0 12 119 251 160 321 109 187 332 442 510 584
485 387 1106 557 1709 470z m-1371 -1573 c31 -11 140 -60 242 -109 225 -108
252 -116 374 -110 l94 5 233 114 c203 98 241 113 284 113 44 0 79 -13 265
-103 242 -117 266 -127 342 -136 93 -12 159 7 340 100 198 101 283 135 341
135 65 0 177 -42 317 -119 161 -88 225 -111 326 -118 l82 -6 6 -36 c10 -64 6
-126 -10 -149 -39 -55 107 -52 -2185 -52 l-2111 0 -41 40 -40 41 7 77 c7 87
25 193 35 204 4 4 52 -12 107 -37 104 -47 208 -75 281 -75 82 0 150 23 353
120 186 90 251 117 288 119 7 1 38 -8 70 -18z"/>
<path d="M2570 2234 c-156 -33 -289 -138 -356 -282 l-39 -82 -172 0 -173 0 0
55 0 55 151 0 151 0 34 34 c30 30 34 40 34 88 0 69 -26 115 -72 123 -18 3
-142 5 -274 3 -269 -3 -270 -4 -300 -75 -17 -40 -20 -755 -4 -815 6 -20 24
-48 41 -62 26 -22 40 -26 98 -26 122 0 141 33 141 243 l0 144 46 7 c59 8 150
8 235 0 l67 -7 12 -41 c32 -110 126 -233 221 -288 178 -104 404 -95 566 23
228 166 277 479 109 707 -73 99 -186 170 -312 197 -84 18 -119 18 -204 -1z
m220 -288 c126 -62 165 -237 79 -356 -44 -60 -98 -85 -189 -85 -114 0 -182 45
-225 148 -29 71 -13 179 37 237 71 85 192 107 298 56z"/>
<path d="M3410 2233 c-33 -12 -71 -46 -86 -76 -14 -26 -80 -486 -109 -758 -12
-109 30 -159 134 -159 58 0 103 31 120 83 8 24 34 298 42 431 0 6 25 -85 55
-203 62 -242 73 -270 113 -294 40 -23 127 -22 167 2 38 23 39 27 109 286 31
115 57 211 59 212 1 1 12 -78 24 -175 33 -251 39 -281 72 -314 24 -24 37 -28
83 -28 47 0 60 4 85 28 17 16 34 40 37 54 5 21 -37 394 -81 708 -21 153 -54
196 -156 207 -45 4 -65 1 -100 -16 -23 -12 -51 -32 -60 -45 -17 -23 -97 -272
-133 -413 -10 -40 -22 -70 -25 -68 -4 2 -12 30 -19 62 -7 32 -40 139 -72 239
-60 186 -75 212 -132 233 -30 11 -101 13 -127 4z"/>
<path d="M94 2211 c-63 -38 -64 -47 -64 -483 0 -420 1 -423 51 -461 35 -25
148 -27 185 -2 52 34 54 53 54 475 0 432 0 432 -63 470 -42 26 -121 26 -163 1z"/>
<path d="M535 2220 c-11 -4 -31 -20 -45 -35 l-25 -27 0 -418 c0 -409 0 -419
21 -447 45 -60 157 -67 217 -13 32 28 32 28 35 143 4 111 5 116 32 142 16 15
33 25 38 21 5 -3 46 -61 92 -128 139 -204 142 -208 237 -208 52 0 66 4 92 26
43 36 58 89 38 136 -9 20 -67 113 -130 205 -62 92 -117 173 -120 179 -3 6 35
57 85 115 110 126 128 154 128 197 0 76 -52 122 -137 122 -75 0 -84 -8 -268
-236 l-80 -99 -5 130 c-5 141 -13 166 -60 190 -31 16 -112 19 -145 5z"/>
<path d="M4462 2216 c-13 -7 -32 -26 -43 -42 -18 -27 -19 -51 -19 -437 0 -449
0 -451 61 -482 25 -14 70 -15 294 -13 l264 3 31 30 c16 16 35 46 41 68 9 32 7
45 -11 82 -32 66 -60 75 -234 75 l-146 0 0 55 0 55 125 0 c106 0 132 3 165 20
67 34 88 105 50 167 -33 54 -63 63 -214 63 l-134 0 1 55 2 55 150 3 c178 3
206 13 236 82 29 65 7 130 -52 161 -38 19 -532 20 -567 0z"/>
<path d="M1059 1030 c-709 -5 -727 -6 -749 -25 -40 -37 -50 -69 -50 -170 0
-223 71 -402 224 -563 112 -118 247 -202 392 -244 l79 -23 1569 -3 c1722 -3
1656 -5 1810 57 168 67 319 198 414 357 79 133 112 257 112 424 0 99 -18 144
-67 173 -32 18 -88 19 -1520 21 -819 1 -1815 -1 -2214 -4z m3487 -327 c-4 -16
-23 -61 -43 -102 -44 -91 -141 -192 -228 -238 -128 -67 -19 -64 -1742 -61
l-1558 3 -65 29 c-84 36 -177 103 -229 163 -39 45 -101 159 -116 211 l-6 22
1996 0 1997 0 -6 -27z"/>
</g>
</svg>
